<?xml version="1.0" encoding="UTF-8"?>
<svg version="1.1" xmlns="http://www.w3.org/2000/svg" width="512" height="512">
<path d="M0 0 C1.05600769 -0.00297112 2.11201537 -0.00594224 3.20002329 -0.0090034 C6.72081023 -0.01764 10.24156295 -0.01919438 13.76235962 -0.02069092 C16.29440381 -0.02532275 18.8264473 -0.0303479 21.35848999 -0.03573608 C28.22678259 -0.04882906 35.09506403 -0.05533678 41.96336699 -0.05974674 C46.26102667 -0.06251827 50.55868413 -0.06675731 54.85634232 -0.07125092 C66.78058671 -0.08343854 78.70482934 -0.09373794 90.62907982 -0.09712601 C91.39106298 -0.09734557 92.15304613 -0.09756514 92.93811969 -0.09779136 C93.70181954 -0.09800964 94.46551939 -0.09822791 95.25236166 -0.09845281 C96.79963962 -0.09889626 98.34691759 -0.09934282 99.89419556 -0.09979248 C100.66168199 -0.10001391 101.42916841 -0.10023534 102.21991201 -0.10046348 C114.63519515 -0.10440523 127.05041938 -0.12184247 139.46567981 -0.145152 C152.24536904 -0.16894982 165.02502883 -0.18133172 177.80474055 -0.18249393 C184.96660425 -0.18340612 192.12839123 -0.18904214 199.29023361 -0.20731354 C206.03559631 -0.22446299 212.78078959 -0.22590464 219.52617645 -0.21717453 C221.98864507 -0.21640907 224.45112178 -0.22068128 226.9135704 -0.23063278 C262.4638771 -0.36576406 297.78351226 6.91671501 325.17495728 31.14044189 C326.01542603 31.87262939 326.85589478 32.60481689 327.72183228 33.35919189 C330.23891814 35.58643151 332.71253889 37.85303837 335.17495728 40.14044189 C335.84140259 40.74114502 336.5078479 41.34184814 337.19448853 41.96075439 C359.12573424 62.59667195 374.05401633 95.32773941 375.30917835 125.35098553 C375.31345183 126.45420556 375.31772532 127.55742559 375.3221283 128.69407654 C375.33286125 130.6088253 375.33286125 130.6088253 375.34381104 132.56225586 C375.34665074 133.95965552 375.34936254 135.35705544 375.35195923 136.75445557 C375.3582327 138.24026139 375.36488026 139.72606567 375.37187195 141.21186829 C375.39282639 146.07737149 375.4032728 150.94287465 375.41323853 155.80841064 C375.41729063 157.49288765 375.42140768 159.17736451 375.42558861 160.8618412 C375.44462887 168.78653319 375.458857 176.71121599 375.46720058 184.63592643 C375.47694018 193.73285816 375.50317837 202.82954445 375.54370147 211.92638987 C375.57406093 218.9883582 375.58868843 226.05025703 375.59198159 233.11228925 C375.59431141 237.31484581 375.60299605 241.51713993 375.62844276 245.71962547 C375.82404393 279.78978068 375.82404393 279.78978068 371.17495728 296.14044189 C370.98060404 296.83421621 370.7862508 297.52799053 370.58600807 298.24278831 C361.04433488 331.73567568 337.32061138 361.76769512 307.18667603 379.05841064 C287.05363222 390.1959978 265.12937097 397.43843675 241.92904663 397.22463989 C240.76133268 397.22040502 240.76133268 397.22040502 239.57002854 397.2160846 C236.9887495 397.20577253 234.40756619 397.1883779 231.82632446 397.17120361 C229.96434279 397.16276663 228.10235828 397.15493465 226.2403717 397.1476593 C223.27133624 397.13593058 220.30230842 397.12374411 217.33328295 397.10969043 C209.97452171 397.07500626 202.61588824 397.05895253 195.25704956 397.05404663 C194.18626844 397.05331394 193.11548732 397.05258125 192.01225829 397.05182636 C187.59911714 397.04916347 183.1859759 397.04711679 178.7728343 397.04535079 C166.27003747 397.03956912 153.76786578 397.01576003 141.26528931 396.93829346 C131.31578563 396.87676871 121.36704883 396.85427355 111.41736913 396.87710583 C106.15986206 396.88771557 100.9040344 396.87897233 95.64678192 396.82278061 C90.69814101 396.77032423 85.7521377 396.76993182 80.80339241 396.80814934 C78.99628117 396.81311196 77.18900047 396.79955967 75.38220787 396.76526451 C64.90238544 396.5784165 58.09646267 397.44640658 50.32973266 404.8883599 C48.93622768 406.29728599 47.55542554 407.71874001 46.17495728 409.14044189 C44.32027873 410.706497 42.44829794 412.25260884 40.54995728 413.76544189 C39.66050415 414.48989502 38.77105103 415.21434814 37.85464478 415.96075439 C36.9703479 416.68005127 36.08605103 417.39934814 35.17495728 418.14044189 C33.34115848 419.63987282 31.50782784 421.13987647 29.67495728 422.64044189 C26.99595808 424.83269335 24.3167152 427.02463658 21.63589478 429.21466064 C15.22213975 434.45611301 8.82658375 439.71935331 2.43423462 444.98687744 C-2.32424301 448.90714802 -7.09039973 452.81771466 -11.86801147 456.71466064 C-14.27365583 458.68811526 -16.67037291 460.67119767 -19.06332397 462.65997314 C-19.81742554 463.28516846 -20.5715271 463.91036377 -21.34848022 464.55450439 C-22.83871552 465.79043332 -24.32709696 467.02860208 -25.81332397 468.26934814 C-38.24744932 478.56925795 -38.24744932 478.56925795 -46.70004272 478.41387939 C-50.30298163 477.95026593 -53.19219811 476.64164428 -55.82504272 474.14044189 C-59.36942154 468.91178515 -60.37376714 465.12768994 -60.11703491 458.77764893 C-60.0939904 457.56885071 -60.0939904 457.56885071 -60.07048035 456.33563232 C-60.03644814 454.59656486 -59.99405651 452.85764464 -59.94411469 451.11896133 C-59.87090351 448.36003413 -59.83332999 445.60280079 -59.80703735 442.8430481 C-59.7315127 435.00154405 -59.63648079 427.16234379 -59.41049194 419.32354736 C-59.27449801 414.51651263 -59.21731693 409.71393589 -59.21057892 404.905056 C-59.19326943 403.08102549 -59.14698134 401.2570186 -59.07042694 399.43451309 C-58.63450369 391.08075167 -58.63450369 391.08075167 -60.82504272 383.14044189 C-64.73328897 379.09686509 -69.81796307 377.02185595 -74.95723724 374.96009445 C-79.10496119 373.13994103 -82.44028672 370.09010639 -85.82504272 367.14044189 C-86.62039429 366.45337158 -87.41574585 365.76630127 -88.23519897 365.05841064 C-90.80398833 362.7913647 -93.32092634 360.4786461 -95.82504272 358.14044189 C-96.65133179 357.37989502 -97.47762085 356.61934814 -98.32894897 355.83575439 C-120.00742247 335.14112398 -135.70574428 303.04409273 -136.9592638 272.91428089 C-136.96353728 271.80368651 -136.96781076 270.69309214 -136.97221375 269.54884338 C-136.97936905 268.26393005 -136.98652435 266.97901672 -136.99389648 265.65516663 C-136.9967362 264.24832178 -136.99944799 262.84147667 -137.00204468 261.43463135 C-137.00831805 259.93897344 -137.01496561 258.44331707 -137.0219574 256.94766235 C-137.04291277 252.04969347 -137.05335828 247.15172461 -137.06332397 242.25372314 C-137.06737603 240.55810213 -137.07149308 238.86248128 -137.07567406 237.16686058 C-137.09471446 229.18984285 -137.10894261 221.21283424 -137.11728603 213.23579818 C-137.12702594 204.07830664 -137.15326489 194.92105891 -137.19378692 185.7636531 C-137.22414447 178.65497604 -137.2387737 171.54636802 -137.24206704 164.43762749 C-137.24439706 160.207126 -137.2530844 155.9768852 -137.27852821 151.74645424 C-137.53028791 107.5738717 -127.37625331 71.23666613 -95.82504272 38.70294189 C-70.63570253 13.52852651 -35.35368263 -0.03150053 0 0 Z M-44.82504272 41.14044189 C-45.92074585 41.65348877 -47.01644897 42.16653564 -48.14535522 42.69512939 C-73.52071272 55.4745263 -92.36577644 78.40316173 -101.57504272 105.12872314 C-107.87314706 124.61230489 -106.98719958 145.05435362 -106.99301147 165.27325439 C-106.99541558 167.2479236 -106.997822 169.2225928 -107.00047189 171.19726169 C-107.00856667 177.39642398 -107.01106076 183.5955718 -107.01034546 189.79473877 C-107.00974624 196.13055594 -107.0202785 202.46628756 -107.03608912 208.80208313 C-107.04928925 214.29308241 -107.05452418 219.78405416 -107.05389005 225.27506912 C-107.05363864 228.53176347 -107.05725241 231.78836596 -107.0670681 235.04504776 C-107.17513879 274.60456858 -101.92618777 306.93301186 -73.76254272 336.64044189 C-64.5803124 345.60766132 -53.83791174 352.07273134 -42.1914978 357.36578369 C-37.15494038 359.71273556 -33.19627998 362.32819926 -30.7097168 367.42784119 C-29.72065661 370.46051214 -29.54714445 372.93685786 -29.50619507 376.12408447 C-29.48632538 377.30493118 -29.46645569 378.48577789 -29.44598389 379.70240784 C-29.43443268 380.96715439 -29.42288147 382.23190094 -29.41098022 383.53497314 C-29.39161407 384.83746506 -29.37224792 386.13995697 -29.35229492 387.48191833 C-29.30109754 390.9325154 -29.26140597 394.38315134 -29.22415161 397.83392334 C-29.18403384 401.36002116 -29.1329771 404.88595898 -29.08285522 408.41192627 C-28.986243 415.32131439 -28.90179151 422.23080535 -28.82504272 429.14044189 C-27.54964247 428.18763006 -26.27475878 427.23412673 -25.00009155 426.28033447 C-24.29008499 425.74942703 -23.58007843 425.21851959 -22.84855652 424.67152405 C-20.35243397 422.78284471 -17.92597598 420.82099486 -15.51254272 418.82794189 C-14.57797241 418.05837158 -13.6434021 417.28880127 -12.68051147 416.49591064 C-11.73820679 415.71860596 -10.7959021 414.94130127 -9.82504272 414.14044189 C-7.99240253 412.63959512 -6.15907527 411.1395869 -4.32504272 409.64044189 C-3.40980835 408.89149658 -2.49457397 408.14255127 -1.55160522 407.37091064 C0.20313512 405.93544254 1.95830882 404.50050394 3.71401978 403.06622314 C9.37836655 398.4372026 15.02914815 393.79204384 20.67495728 389.14044189 C22.14109214 387.93339732 23.60723778 386.72636583 25.07339478 385.51934814 C27.53965108 383.48874789 30.00354719 381.45538849 32.46401978 379.41778564 C47.53294698 366.98488289 47.53294698 366.98488289 57.962677 367.00914001 C58.76446145 367.0070243 59.56624589 367.00490859 60.39232683 367.00272876 C63.08876412 366.99672037 65.78515471 366.99772956 68.4815979 366.99859619 C70.41177958 366.99556494 72.34196054 366.99204359 74.2721405 366.98806763 C78.43655985 366.9801706 82.60097061 366.97503046 86.76539612 366.97177696 C93.36585095 366.96586259 99.96625195 366.94931427 106.56668091 366.93043518 C108.82845303 366.92409714 111.09022519 366.91777153 113.35199738 366.91145802 C114.48504964 366.9082922 115.6181019 366.90512639 116.78548908 366.90186465 C132.15179286 366.85985358 147.51807262 366.82686436 162.88442993 366.81451416 C173.24692909 366.80610005 183.60929587 366.78347964 193.9717288 366.74515849 C199.44913696 366.72549771 204.92634767 366.71295957 210.40379333 366.71799278 C215.571646 366.72268297 220.73912646 366.70859832 225.90690422 366.68098068 C227.78883072 366.67413966 229.67079631 366.67386442 231.55272102 366.68118095 C262.86076174 366.79046261 289.03115553 357.21263062 312.17495728 336.14044189 C312.83882446 335.55907471 313.50269165 334.97770752 314.18667603 334.37872314 C333.97799596 316.06367882 343.7104882 287.81383473 345.08102798 261.5669632 C345.46206335 251.72349038 345.34009495 241.85661125 345.34292603 232.00762939 C345.34533013 230.03296019 345.34773655 228.05829098 345.35038644 226.0836221 C345.35848122 219.88445981 345.36097531 213.68531199 345.36026001 207.48614502 C345.35966079 201.15032785 345.37019305 194.81459623 345.38600367 188.47880065 C345.3992038 182.98780138 345.40443873 177.49682963 345.4038046 172.00581467 C345.40355319 168.74912032 345.40716696 165.49251782 345.41698265 162.23583603 C345.52129125 124.05343597 341.19308501 90.87067651 313.42886353 62.30841064 C288.20555632 37.2831723 257.43667149 30.6652557 222.99234009 30.73638916 C220.48058775 30.73067683 217.968838 30.72370925 215.45709229 30.71559143 C209.37784332 30.69958676 203.29873455 30.69754037 197.21947101 30.70280433 C192.2705481 30.70686868 187.32165556 30.70537582 182.37273407 30.70005608 C181.31058272 30.69893344 181.31058272 30.69893344 180.22697376 30.69778813 C178.78780692 30.69625643 177.34864009 30.69471808 175.90947327 30.69317316 C162.45371744 30.67948763 148.99801996 30.68485753 135.5422655 30.69635838 C123.27680216 30.70628269 111.01148985 30.69335694 98.74604979 30.66942418 C86.10285231 30.64494333 73.45972491 30.63544751 60.81650424 30.64207691 C53.73797891 30.64554977 46.65956951 30.64346648 39.58106232 30.62582588 C32.91926356 30.60942748 26.2577964 30.61442417 19.59598923 30.63313103 C17.16619035 30.6367892 14.73636978 30.63379056 12.30659103 30.62324524 C-7.92837869 30.54220318 -26.3320105 32.46003901 -44.82504272 41.14044189 Z " fill="#000000" transform="translate(136.82504272460938,16.85955810546875)"/>
<path d="M0 0 C4.60987501 2.18362501 6.74857171 4.48887816 9 9 C9.38031673 11.95670223 9.38031673 11.95670223 9.38768005 15.29344177 C9.39758469 16.5621814 9.40748932 17.83092102 9.41769409 19.1381073 C9.41345632 20.53665258 9.40889849 21.93519693 9.40405273 23.33374023 C9.40975746 24.81241369 9.41672211 26.29108275 9.42485046 27.76974487 C9.44278604 31.7801179 9.44161277 35.79027217 9.43590808 39.80067325 C9.43281674 43.15059707 9.43890807 46.50047885 9.44494683 49.85039669 C9.45899179 57.7542226 9.45743106 65.65794042 9.44604492 73.56176758 C9.43456385 81.71150684 9.44863912 89.86091701 9.4754414 98.01061291 C9.49760389 105.01204699 9.50423454 112.01337781 9.49836498 119.01484448 C9.49499548 123.19459702 9.4974099 127.37413862 9.51461601 131.55386162 C9.53009192 135.48481082 9.52612286 139.41527285 9.50731087 143.34620285 C9.50362671 144.78692469 9.50672851 146.22768268 9.51719666 147.6683712 C9.53041787 149.63873518 9.51644397 151.60922517 9.50120544 153.57957458 C9.50099616 154.68107566 9.50078688 155.78257673 9.50057125 156.91745663 C8.72283668 161.70678591 6.41765463 164.89893162 2.62109375 167.84765625 C-2.12829103 169.93568681 -6.92248151 169.61920957 -12 169 C-16.60987501 166.81637499 -18.74857171 164.51112184 -21 160 C-21.38031673 157.04329777 -21.38031673 157.04329777 -21.38768005 153.70655823 C-21.39758469 152.4378186 -21.40748932 151.16907898 -21.41769409 149.8618927 C-21.41345632 148.46334742 -21.40889849 147.06480307 -21.40405273 145.66625977 C-21.40975746 144.18758631 -21.41672211 142.70891725 -21.42485046 141.23025513 C-21.44278604 137.2198821 -21.44161277 133.20972783 -21.43590808 129.19932675 C-21.43281674 125.84940293 -21.43890807 122.49952115 -21.44494683 119.14960331 C-21.45899179 111.2457774 -21.45743106 103.34205958 -21.44604492 95.43823242 C-21.43456385 87.28849316 -21.44863912 79.13908299 -21.4754414 70.98938709 C-21.49760389 63.98795301 -21.50423454 56.98662219 -21.49836498 49.98515552 C-21.49499548 45.80540298 -21.4974099 41.62586138 -21.51461601 37.44613838 C-21.53009192 33.51518918 -21.52612286 29.58472715 -21.50731087 25.65379715 C-21.50362671 24.21307531 -21.50672851 22.77231732 -21.51719666 21.3316288 C-21.53041787 19.36126482 -21.51644397 17.39077483 -21.50120544 15.42042542 C-21.50099616 14.31892434 -21.50078688 13.21742327 -21.50057125 12.08254337 C-20.72283668 7.29321409 -18.41765463 4.10106838 -14.62109375 1.15234375 C-9.87170897 -0.93568681 -5.07751849 -0.61920957 0 0 Z " fill="#000000" transform="translate(262,135)"/>
<path d="M0 0 C4.58494291 2.17181506 6.88434652 4.4317639 9 9 C9.44176758 12.24814804 9.42012525 15.46979514 9.40405273 18.74389648 C9.41091599 19.72009949 9.41777924 20.69630249 9.42485046 21.7020874 C9.44313407 24.92523797 9.43927863 28.14790251 9.43359375 31.37109375 C9.4381548 33.61402037 9.44346014 35.85694559 9.44947815 38.09986877 C9.45841235 42.79979125 9.45598252 47.49954383 9.44604492 52.19946289 C9.43455523 58.21985588 9.45476565 64.23966236 9.48396206 70.25997829 C9.50231555 74.89170553 9.50203325 79.52329199 9.49632454 84.15504646 C9.49617122 86.37459193 9.50222428 88.59414688 9.51461601 90.81365776 C9.52950758 93.91838155 9.5188617 97.022019 9.50170898 100.12670898 C9.51137695 101.0417067 9.52104492 101.95670441 9.53100586 102.89942932 C9.4671275 108.42619906 8.70654021 111.62636216 5 116 C-0.22259857 120.05630398 -5.65340142 119.77397544 -12 119 C-16.58494291 116.82818494 -18.88434652 114.5682361 -21 110 C-21.44176758 106.75185196 -21.42012525 103.53020486 -21.40405273 100.25610352 C-21.41091599 99.27990051 -21.41777924 98.30369751 -21.42485046 97.2979126 C-21.44313407 94.07476203 -21.43927863 90.85209749 -21.43359375 87.62890625 C-21.4381548 85.38597963 -21.44346014 83.14305441 -21.44947815 80.90013123 C-21.45841235 76.20020875 -21.45598252 71.50045617 -21.44604492 66.80053711 C-21.43455523 60.78014412 -21.45476565 54.76033764 -21.48396206 48.74002171 C-21.50231555 44.10829447 -21.50203325 39.47670801 -21.49632454 34.84495354 C-21.49617122 32.62540807 -21.50222428 30.40585312 -21.51461601 28.18634224 C-21.52950758 25.08161845 -21.5188617 21.977981 -21.50170898 18.87329102 C-21.51137695 17.9582933 -21.52104492 17.04329559 -21.53100586 16.10057068 C-21.4671275 10.57380094 -20.70654021 7.37363784 -17 3 C-11.77740143 -1.05630398 -6.34659858 -0.77397544 0 0 Z " fill="#000000" transform="translate(142,160)"/>
<path d="M0 0 C4.60339239 2.18055429 6.77652951 4.47771184 9 9 C9.38768005 12.2563324 9.38768005 12.2563324 9.40405273 15.98999023 C9.41091599 16.67358612 9.41777924 17.35718201 9.42485046 18.06149292 C9.44308202 20.31074062 9.43928641 22.55928834 9.43359375 24.80859375 C9.43815744 26.37891363 9.44346357 27.94923151 9.44947815 29.51954651 C9.45840214 32.80714035 9.45599449 36.09449118 9.44604492 39.38208008 C9.43455787 43.58654395 9.4547655 47.79016762 9.48396206 51.99452114 C9.50234522 55.23657015 9.50202741 58.4784186 9.49632454 61.72050667 C9.49617157 63.27019491 9.50219562 64.81989697 9.51461601 66.36953545 C9.52956476 68.54042495 9.51882296 70.7097726 9.50170898 72.88061523 C9.50154282 74.11351791 9.50137665 75.34642059 9.50120544 76.61668396 C8.76286743 81.60072966 6.57096437 84.77985855 2.62109375 87.84765625 C-2.12829103 89.93568681 -6.92248151 89.61920957 -12 89 C-16.60339239 86.81944571 -18.77652951 84.52228816 -21 80 C-21.38768005 76.7436676 -21.38768005 76.7436676 -21.40405273 73.01000977 C-21.41091599 72.32641388 -21.41777924 71.64281799 -21.42485046 70.93850708 C-21.44308202 68.68925938 -21.43928641 66.44071166 -21.43359375 64.19140625 C-21.43815744 62.62108637 -21.44346357 61.05076849 -21.44947815 59.48045349 C-21.45840214 56.19285965 -21.45599449 52.90550882 -21.44604492 49.61791992 C-21.43455787 45.41345605 -21.4547655 41.20983238 -21.48396206 37.00547886 C-21.50234522 33.76342985 -21.50202741 30.5215814 -21.49632454 27.27949333 C-21.49617157 25.72980509 -21.50219562 24.18010303 -21.51461601 22.63046455 C-21.52956476 20.45957505 -21.51882296 18.2902274 -21.50170898 16.11938477 C-21.50154282 14.88648209 -21.50137665 13.65357941 -21.50120544 12.38331604 C-20.76286743 7.39927034 -18.57096437 4.22014145 -14.62109375 1.15234375 C-9.87170897 -0.93568681 -5.07751849 -0.61920957 0 0 Z " fill="#000000" transform="translate(382,175)"/>
<path d="M0 0 C4.58209658 2.1704668 6.94166223 4.40337464 9 9 C9.45868087 12.80991339 9.4441031 16.59973715 9.43359375 20.43359375 C9.4388356 21.54428726 9.44407745 22.65498077 9.44947815 23.79933167 C9.45589374 26.14526535 9.45456738 28.49123123 9.44604492 30.8371582 C9.4375384 34.42132006 9.46629953 38.00388627 9.49804688 41.58789062 C9.49965912 43.86979119 9.49908092 46.15169457 9.49609375 48.43359375 C9.51294472 50.03695839 9.51294472 50.03695839 9.53013611 51.67271423 C9.47325634 57.7631243 9.09170857 61.37713351 5 66 C-0.22259857 70.05630398 -5.65340142 69.77397544 -12 69 C-16.58209658 66.8295332 -18.94166223 64.59662536 -21 60 C-21.45868087 56.19008661 -21.4441031 52.40026285 -21.43359375 48.56640625 C-21.4388356 47.45571274 -21.44407745 46.34501923 -21.44947815 45.20066833 C-21.45589374 42.85473465 -21.45456738 40.50876877 -21.44604492 38.1628418 C-21.4375384 34.57867994 -21.46629953 30.99611373 -21.49804688 27.41210938 C-21.49965912 25.13020881 -21.49908092 22.84830543 -21.49609375 20.56640625 C-21.50732773 19.49749649 -21.51856171 18.42858673 -21.53013611 17.32728577 C-21.47325634 11.2368757 -21.09170857 7.62286649 -17 3 C-11.77740143 -1.05630398 -6.34659858 -0.77397544 0 0 Z " fill="#000000" transform="translate(442,185)"/>
<path d="M0 0 C4.58209658 2.1704668 6.94166223 4.40337464 9 9 C9.45868087 12.80991339 9.4441031 16.59973715 9.43359375 20.43359375 C9.4388356 21.54428726 9.44407745 22.65498077 9.44947815 23.79933167 C9.45589374 26.14526535 9.45456738 28.49123123 9.44604492 30.8371582 C9.4375384 34.42132006 9.46629953 38.00388627 9.49804688 41.58789062 C9.49965912 43.86979119 9.49908092 46.15169457 9.49609375 48.43359375 C9.51294472 50.03695839 9.51294472 50.03695839 9.53013611 51.67271423 C9.47325634 57.7631243 9.09170857 61.37713351 5 66 C-0.22259857 70.05630398 -5.65340142 69.77397544 -12 69 C-16.58209658 66.8295332 -18.94166223 64.59662536 -21 60 C-21.45868087 56.19008661 -21.4441031 52.40026285 -21.43359375 48.56640625 C-21.4388356 47.45571274 -21.44407745 46.34501923 -21.44947815 45.20066833 C-21.45589374 42.85473465 -21.45456738 40.50876877 -21.44604492 38.1628418 C-21.4375384 34.57867994 -21.46629953 30.99611373 -21.49804688 27.41210938 C-21.49965912 25.13020881 -21.49908092 22.84830543 -21.49609375 20.56640625 C-21.50732773 19.49749649 -21.51856171 18.42858673 -21.53013611 17.32728577 C-21.47325634 11.2368757 -21.09170857 7.62286649 -17 3 C-11.77740143 -1.05630398 -6.34659858 -0.77397544 0 0 Z " fill="#000000" transform="translate(202,185)"/>
<path d="M0 0 C4.60384226 2.18076739 6.77672765 4.47725364 9 9 C9.53835016 13.42097703 9.47311966 17.84329413 9.44604492 22.29223633 C9.43753693 24.42822748 9.46631719 26.56153838 9.49804688 28.69726562 C9.49965936 30.06770754 9.49908045 31.43815414 9.49609375 32.80859375 C9.49887329 34.66182251 9.49887329 34.66182251 9.50170898 36.55249023 C8.77070822 41.57558603 6.60233196 44.75549587 2.62109375 47.84765625 C-2.12829103 49.93568681 -6.92248151 49.61920957 -12 49 C-16.60384226 46.81923261 -18.77672765 44.52274636 -21 40 C-21.53835016 35.57902297 -21.47311966 31.15670587 -21.44604492 26.70776367 C-21.43753693 24.57177252 -21.46631719 22.43846162 -21.49804688 20.30273438 C-21.49965936 18.93229246 -21.49908045 17.56184586 -21.49609375 16.19140625 C-21.49794678 14.95592041 -21.4997998 13.72043457 -21.50170898 12.44750977 C-20.77070822 7.42441397 -18.60233196 4.24450413 -14.62109375 1.15234375 C-9.87170897 -0.93568681 -5.07751849 -0.61920957 0 0 Z " fill="#000000" transform="translate(322,195)"/>
<path d="M0 0 C4.60384226 2.18076739 6.77672765 4.47725364 9 9 C9.53835016 13.42097703 9.47311966 17.84329413 9.44604492 22.29223633 C9.43753693 24.42822748 9.46631719 26.56153838 9.49804688 28.69726562 C9.49965936 30.06770754 9.49908045 31.43815414 9.49609375 32.80859375 C9.49887329 34.66182251 9.49887329 34.66182251 9.50170898 36.55249023 C8.77070822 41.57558603 6.60233196 44.75549587 2.62109375 47.84765625 C-2.12829103 49.93568681 -6.92248151 49.61920957 -12 49 C-16.60384226 46.81923261 -18.77672765 44.52274636 -21 40 C-21.53835016 35.57902297 -21.47311966 31.15670587 -21.44604492 26.70776367 C-21.43753693 24.57177252 -21.46631719 22.43846162 -21.49804688 20.30273438 C-21.49965936 18.93229246 -21.49908045 17.56184586 -21.49609375 16.19140625 C-21.49794678 14.95592041 -21.4997998 13.72043457 -21.50170898 12.44750977 C-20.77070822 7.42441397 -18.60233196 4.24450413 -14.62109375 1.15234375 C-9.87170897 -0.93568681 -5.07751849 -0.61920957 0 0 Z " fill="#000000" transform="translate(82,195)"/>
</svg>
